<svg width="480" height="108" viewBox="0 0 480 108" fill="none" xmlns="http://www.w3.org/2000/svg">
<g clip-path="url(#clip0_925_2699)">
<rect x="0.5" width="11.5841" height="11.5841" fill="#D998F4"/>
<rect x="15.0841" width="11.5841" height="11.5841" fill="#D998F4"/>
<rect x="29.6682" width="11.5841" height="11.5841" fill="#D998F4"/>
<rect x="44.2523" width="11.5841" height="11.5841" fill="#D998F4"/>
<rect x="58.8364" width="11.5841" height="11.5841" fill="#D998F4"/>
<rect x="73.4205" width="11.5841" height="11.5841" fill="#D998F4"/>
<rect x="88.0046" width="11.5841" height="11.5841" fill="#D998F4"/>
<rect x="102.589" width="11.5841" height="11.5841" fill="#D998F4"/>
<rect x="117.173" width="11.5841" height="11.5841" fill="#D998F4"/>
<rect x="131.757" width="11.5841" height="11.5841" fill="#D998F4"/>
<rect x="146.341" width="11.5841" height="11.5841" fill="#D998F4"/>
<rect x="160.925" width="11.5841" height="11.5841" fill="#D998F4"/>
<rect x="175.509" width="11.5841" height="11.5841" fill="#D998F4"/>
<rect x="190.093" width="11.5841" height="11.5841" fill="#D998F4"/>
<rect x="204.677" width="11.5841" height="11.5841" fill="#D998F4"/>
<rect x="219.262" width="11.5841" height="11.5841" fill="#D998F4"/>
<rect x="233.846" width="11.5841" height="11.5841" fill="#D998F4"/>
<rect x="248.43" width="11.5841" height="11.5841" fill="#D998F4"/>
<rect x="263.014" width="11.5841" height="11.5841" fill="#D998F4"/>
<rect x="277.598" width="11.5841" height="11.5841" fill="#D998F4"/>
<rect width="11.5841" height="11.5841" transform="matrix(-1 0 0 1 303.766 0)" fill="#D998F4"/>
<rect width="11.5841" height="11.5841" transform="matrix(-1 0 0 1 318.35 0)" fill="#D998F4"/>
<rect width="11.5841" height="11.5841" transform="matrix(-1 0 0 1 332.934 0)" fill="#D998F4"/>
<rect width="11.5841" height="11.5841" transform="matrix(-1 0 0 1 347.519 0)" fill="#D998F4"/>
<rect x="350.519" width="11.5841" height="11.5841" fill="#D998F4"/>
<rect width="11.5841" height="11.5841" transform="matrix(-1 0 0 1 376.687 0)" fill="#D998F4"/>
<rect width="11.5841" height="11.5841" transform="matrix(-1 0 0 1 391.271 0)" fill="#D998F4"/>
<rect x="394.271" width="11.5841" height="11.5841" fill="#D998F4"/>
<rect width="11.5841" height="11.5841" transform="matrix(-1 0 0 1 420.439 0)" fill="#D998F4"/>
<rect x="423.439" width="11.5841" height="11.5841" fill="#D998F4"/>
<rect x="438.023" width="11.5841" height="11.5841" fill="#D998F4"/>
<rect x="452.607" width="11.5841" height="11.5841" fill="#D998F4"/>
<rect x="467.191" width="11.5841" height="11.5841" fill="#D998F4"/>
<rect x="0.5" y="13.5841" width="11.5841" height="11.5841" fill="#D998F4"/>
<rect width="11.5841" height="11.5841" transform="matrix(-1 0 0 1 26.6682 13.5841)" fill="#D998F4"/>
<rect x="29.6682" y="13.5841" width="11.5841" height="11.5841" fill="#D998F4"/>
<rect x="44.2523" y="13.5841" width="11.5841" height="11.5841" fill="#D998F4"/>
<rect x="58.8364" y="13.5841" width="11.5841" height="11.5841" fill="#D998F4"/>
<rect x="73.4205" y="13.5841" width="11.5841" height="11.5841" fill="#D998F4"/>
<rect width="11.5841" height="11.5841" transform="matrix(-1 0 0 1 99.5887 13.5841)" fill="#D998F4"/>
<rect width="11.5841" height="11.5841" transform="matrix(-1 0 0 1 114.173 13.5841)" fill="#D998F4"/>
<rect width="11.5841" height="11.5841" transform="matrix(-1 0 0 1 128.757 13.5841)" fill="#D998F4"/>
<rect width="11.5841" height="11.5841" transform="matrix(-1 0 0 1 143.341 13.5841)" fill="#D998F4"/>
<rect width="11.5841" height="11.5841" transform="matrix(-1 0 0 1 157.925 13.5841)" fill="#D998F4"/>
<rect x="160.925" y="13.5841" width="11.5841" height="11.5841" fill="#D998F4"/>
<rect x="175.509" y="13.5841" width="11.5841" height="11.5841" fill="#D998F4"/>
<rect x="190.093" y="13.5841" width="11.5841" height="11.5841" fill="#D998F4"/>
<rect x="204.677" y="13.5841" width="11.5841" height="11.5841" fill="#D998F4"/>
<rect x="219.262" y="13.5841" width="11.5841" height="11.5841" fill="#D998F4"/>
<rect x="233.846" y="13.5841" width="11.5841" height="11.5841" fill="#D998F4"/>
<rect x="248.43" y="13.5841" width="11.5841" height="11.5841" fill="#D998F4"/>
<rect x="263.014" y="13.5841" width="11.5841" height="11.5841" fill="#D998F4"/>
<rect x="277.598" y="13.5841" width="11.5841" height="11.5841" fill="#D998F4"/>
<rect x="292.182" y="13.5841" width="11.5841" height="11.5841" fill="#D998F4"/>
<rect x="306.766" y="13.5841" width="11.5841" height="11.5841" fill="#D998F4"/>
<rect x="321.35" y="13.5841" width="11.5841" height="11.5841" fill="#D998F4"/>
<rect x="335.934" y="13.5841" width="11.5841" height="11.5841" fill="#D998F4"/>
<rect x="350.519" y="13.5841" width="11.5841" height="11.5841" fill="#D998F4"/>
<rect x="365.103" y="13.5841" width="11.5841" height="11.5841" fill="#D998F4"/>
<rect x="379.687" y="13.5841" width="11.5841" height="11.5841" fill="#D998F4"/>
<rect x="394.271" y="13.5841" width="11.5841" height="11.5841" fill="#D998F4"/>
<rect x="408.855" y="13.5841" width="11.5841" height="11.5841" fill="#D998F4"/>
<rect x="423.439" y="13.5841" width="11.5841" height="11.5841" fill="#D998F4"/>
<rect x="438.023" y="13.5841" width="11.5841" height="11.5841" fill="#D998F4"/>
<rect x="452.607" y="13.5841" width="11.5841" height="11.5841" fill="#D998F4"/>
<rect x="467.191" y="13.5841" width="11.5841" height="11.5841" fill="#D998F4"/>
<rect x="0.5" y="27.1682" width="11.5841" height="11.5841" fill="#D998F4"/>
<rect x="15.0841" y="27.1682" width="11.5841" height="11.5841" fill="#D998F4"/>
<rect x="29.6682" y="27.1682" width="11.5841" height="11.5841" fill="#D998F4"/>
<rect x="44.2523" y="27.1682" width="11.5841" height="11.5841" fill="#D998F4"/>
<rect width="11.5841" height="11.5841" transform="matrix(-1 0 0 1 70.4205 27.1682)" fill="#D998F4"/>
<rect width="11.5841" height="11.5841" transform="matrix(-1 0 0 1 85.0046 27.1682)" fill="#D998F4"/>
<rect width="11.5841" height="11.5841" transform="matrix(-1 0 0 1 99.5887 27.1682)" fill="#D998F4"/>
<rect width="11.5841" height="11.5841" transform="matrix(-1 0 0 1 114.173 27.1682)" fill="#D998F4"/>
<rect width="11.5841" height="11.5841" transform="matrix(-1 0 0 1 128.757 27.1682)" fill="#D998F4"/>
<rect width="11.5841" height="11.5841" transform="matrix(-1 0 0 1 143.341 27.1682)" fill="#D998F4"/>
<rect width="11.5841" height="11.5841" transform="matrix(-1 0 0 1 157.925 27.1682)" fill="#D998F4"/>
<rect width="11.5841" height="11.5841" transform="matrix(-1 0 0 1 172.509 27.1682)" fill="#D998F4"/>
<rect width="11.5841" height="11.5841" transform="matrix(-1 0 0 1 187.093 27.1682)" fill="#D998F4"/>
<rect width="11.5841" height="11.5841" transform="matrix(-1 0 0 1 201.677 27.1682)" fill="#D998F4"/>
<rect width="11.5841" height="11.5841" transform="matrix(-1 0 0 1 216.262 27.1682)" fill="#D998F4"/>
<rect width="11.5841" height="11.5841" transform="matrix(-1 0 0 1 230.846 27.1682)" fill="#D998F4"/>
<rect width="11.5841" height="11.5841" transform="matrix(-1 0 0 1 245.43 27.1682)" fill="#D998F4"/>
<rect width="11.5841" height="11.5841" transform="matrix(-1 0 0 1 260.014 27.1682)" fill="#D998F4"/>
<rect width="11.5841" height="11.5841" transform="matrix(-1 0 0 1 274.598 27.1682)" fill="#D998F4"/>
<rect width="11.5841" height="11.5841" transform="matrix(-1 0 0 1 289.182 27.1682)" fill="#D998F4"/>
<rect width="11.5841" height="11.5841" transform="matrix(-1 0 0 1 303.766 27.1682)" fill="#D998F4"/>
<rect width="11.5841" height="11.5841" transform="matrix(-1 0 0 1 318.35 27.1682)" fill="#D998F4"/>
<rect x="321.35" y="27.1682" width="11.5841" height="11.5841" fill="#D998F4"/>
<rect x="335.934" y="27.1682" width="11.5841" height="11.5841" fill="#D998F4"/>
<rect x="350.519" y="27.1682" width="11.5841" height="11.5841" fill="#D998F4"/>
<rect x="365.103" y="27.1682" width="11.5841" height="11.5841" fill="#D998F4"/>
<rect x="379.687" y="27.1682" width="11.5841" height="11.5841" fill="#D998F4"/>
<rect x="394.271" y="27.1682" width="11.5841" height="11.5841" fill="#D998F4"/>
<rect x="408.855" y="27.1682" width="11.5841" height="11.5841" fill="#D998F4"/>
<rect x="423.439" y="27.1682" width="11.5841" height="11.5841" fill="#D998F4"/>
<rect x="438.023" y="27.1682" width="11.5841" height="11.5841" fill="#D998F4"/>
<rect x="452.607" y="27.1682" width="11.5841" height="11.5841" fill="#D998F4"/>
<rect x="467.191" y="27.1682" width="11.5841" height="11.5841" fill="#D998F4"/>
<rect x="0.5" y="40.7523" width="11.5841" height="11.5841" fill="#D998F4"/>
<rect x="15.0841" y="40.7523" width="11.5841" height="11.5841" fill="#D998F4"/>
<rect x="29.6682" y="40.7523" width="11.5841" height="11.5841" fill="#D998F4"/>
<rect x="44.2523" y="40.7523" width="11.5841" height="11.5841" fill="#D998F4"/>
<rect x="58.8364" y="40.7523" width="11.5841" height="11.5841" fill="#D998F4"/>
<rect x="73.4205" y="40.7523" width="11.5841" height="11.5841" fill="#D998F4"/>
<rect x="88.0046" y="40.7523" width="11.5841" height="11.5841" fill="#D998F4"/>
<rect x="102.589" y="40.7523" width="11.5841" height="11.5841" fill="#D998F4"/>
<rect x="117.173" y="40.7523" width="11.5841" height="11.5841" fill="#D998F4"/>
<rect x="131.757" y="40.7523" width="11.5841" height="11.5841" fill="#D998F4"/>
<rect x="146.341" y="40.7523" width="11.5841" height="11.5841" fill="#D998F4"/>
<rect x="160.925" y="40.7523" width="11.5841" height="11.5841" fill="#D998F4"/>
<rect x="175.509" y="40.7523" width="11.5841" height="11.5841" fill="#D998F4"/>
<rect x="190.093" y="40.7523" width="11.5841" height="11.5841" fill="#D998F4"/>
<rect x="204.677" y="40.7523" width="11.5841" height="11.5841" fill="#D998F4"/>
<rect x="219.262" y="40.7523" width="11.5841" height="11.5841" fill="#D998F4"/>
<rect x="233.846" y="40.7523" width="11.5841" height="11.5841" fill="#D998F4"/>
<rect x="248.43" y="40.7523" width="11.5841" height="11.5841" fill="#D998F4"/>
<rect x="263.014" y="40.7523" width="11.5841" height="11.5841" fill="#D998F4"/>
<rect x="277.598" y="40.7523" width="11.5841" height="11.5841" fill="#D998F4"/>
<rect x="292.182" y="40.7523" width="11.5841" height="11.5841" fill="#D998F4"/>
<rect x="306.766" y="40.7523" width="11.5841" height="11.5841" fill="#D998F4"/>
<rect x="321.35" y="40.7523" width="11.5841" height="11.5841" fill="#D998F4"/>
<rect x="335.934" y="40.7523" width="11.5841" height="11.5841" fill="#D998F4"/>
<rect x="350.519" y="40.7523" width="11.5841" height="11.5841" fill="#D998F4"/>
<rect x="365.103" y="40.7523" width="11.5841" height="11.5841" fill="#D998F4"/>
<rect x="379.687" y="40.7523" width="11.5841" height="11.5841" fill="#D998F4"/>
<rect x="394.271" y="40.7523" width="11.5841" height="11.5841" fill="#D998F4"/>
<rect x="408.855" y="40.7523" width="11.5841" height="11.5841" fill="#D998F4"/>
<rect x="423.439" y="40.7523" width="11.5841" height="11.5841" fill="#D998F4"/>
<rect x="438.023" y="40.7523" width="11.5841" height="11.5841" fill="#D998F4"/>
<rect x="452.607" y="40.7523" width="11.5841" height="11.5841" fill="#D998F4"/>
<rect x="467.191" y="40.7523" width="11.5841" height="11.5841" fill="#D998F4"/>
<rect x="0.5" y="54.3364" width="11.5841" height="11.5841" fill="#D998F4"/>
<rect x="15.0841" y="54.3364" width="11.5841" height="11.5841" fill="#D998F4"/>
<rect x="29.6682" y="54.3364" width="11.5841" height="11.5841" fill="#D998F4"/>
<rect x="44.2523" y="54.3364" width="11.5841" height="11.5841" fill="#D998F4"/>
<rect x="58.8364" y="54.3364" width="11.5841" height="11.5841" fill="#D998F4"/>
<rect x="73.4205" y="54.3364" width="11.5841" height="11.5841" fill="#D998F4"/>
<rect x="88.0046" y="54.3364" width="11.5841" height="11.5841" fill="#D998F4"/>
<rect x="102.589" y="54.3364" width="11.5841" height="11.5841" fill="#D998F4"/>
<rect x="117.173" y="54.3364" width="11.5841" height="11.5841" fill="#D998F4"/>
<rect x="131.757" y="54.3364" width="11.5841" height="11.5841" fill="#D998F4"/>
<rect x="146.341" y="54.3364" width="11.5841" height="11.5841" fill="#D998F4"/>
<rect x="160.925" y="54.3364" width="11.5841" height="11.5841" fill="#D998F4"/>
<rect x="175.509" y="54.3364" width="11.5841" height="11.5841" fill="#D998F4"/>
<rect x="190.093" y="54.3364" width="11.5841" height="11.5841" fill="url(#paint0_linear_925_2699)"/>
<rect x="204.677" y="54.3364" width="11.5841" height="11.5841" fill="#D998F4"/>
<rect x="219.262" y="54.3364" width="11.5841" height="11.5841" fill="#D998F4"/>
<rect x="233.846" y="54.3364" width="11.5841" height="11.5841" fill="#D998F4"/>
<rect x="248.43" y="54.3364" width="11.5841" height="11.5841" fill="#D998F4"/>
<rect x="263.014" y="54.3364" width="11.5841" height="11.5841" fill="#D998F4"/>
<rect x="277.598" y="54.3364" width="11.5841" height="11.5841" fill="#D998F4"/>
<rect x="292.182" y="54.3364" width="11.5841" height="11.5841" fill="#D998F4"/>
<rect x="306.766" y="54.3364" width="11.5841" height="11.5841" fill="#D998F4"/>
<rect x="321.35" y="54.3364" width="11.5841" height="11.5841" fill="#D998F4"/>
<rect x="335.934" y="54.3364" width="11.5841" height="11.5841" fill="#D998F4"/>
<rect x="350.519" y="54.3364" width="11.5841" height="11.5841" fill="#D998F4"/>
<rect x="365.103" y="54.3364" width="11.5841" height="11.5841" fill="#D998F4"/>
<rect x="379.687" y="54.3364" width="11.5841" height="11.5841" fill="#D998F4"/>
<rect x="394.271" y="54.3364" width="11.5841" height="11.5841" fill="#D998F4"/>
<rect x="408.855" y="54.3364" width="11.5841" height="11.5841" fill="#D998F4"/>
<rect x="423.439" y="54.3364" width="11.5841" height="11.5841" fill="#D998F4"/>
<rect x="438.023" y="54.3364" width="11.5841" height="11.5841" fill="#D998F4"/>
<rect x="452.607" y="54.3364" width="11.5841" height="11.5841" fill="#D998F4"/>
<rect x="467.191" y="54.3364" width="11.5841" height="11.5841" fill="#D998F4"/>
<rect x="0.5" y="67.9205" width="11.5841" height="11.5841" fill="#D998F4"/>
<rect x="15.0841" y="67.9205" width="11.5841" height="11.5841" fill="#D998F4"/>
<rect x="29.6682" y="67.9205" width="11.5841" height="11.5841" fill="#D998F4"/>
<rect x="44.2523" y="67.9205" width="11.5841" height="11.5841" fill="#D998F4"/>
<rect x="58.8364" y="67.9205" width="11.5841" height="11.5841" fill="#D998F4"/>
<rect x="73.4205" y="67.9205" width="11.5841" height="11.5841" fill="#D998F4"/>
<rect x="88.0046" y="67.9205" width="11.5841" height="11.5841" fill="#D998F4"/>
<rect x="102.589" y="67.9205" width="11.5841" height="11.5841" fill="url(#paint1_linear_925_2699)"/>
<rect x="117.173" y="67.9205" width="11.5841" height="11.5841" fill="#D998F4"/>
<rect x="131.757" y="67.9205" width="11.5841" height="11.5841" fill="#D998F4"/>
<rect x="146.341" y="67.9205" width="11.5841" height="11.5841" fill="#D998F4"/>
<rect x="160.925" y="67.9205" width="11.5841" height="11.5841" fill="url(#paint2_linear_925_2699)"/>
<rect x="175.509" y="67.9205" width="11.5841" height="11.5841" fill="#D998F4"/>
<rect x="190.093" y="67.9205" width="11.5841" height="11.5841" fill="url(#paint3_linear_925_2699)"/>
<rect x="204.677" y="67.9205" width="11.5841" height="11.5841" fill="#D998F4"/>
<rect x="219.262" y="67.9205" width="11.5841" height="11.5841" fill="url(#paint4_linear_925_2699)"/>
<rect x="233.846" y="67.9205" width="11.5841" height="11.5841" fill="#D998F4"/>
<rect x="248.43" y="67.9205" width="11.5841" height="11.5841" fill="#D998F4"/>
<rect x="263.014" y="67.9205" width="11.5841" height="11.5841" fill="#D998F4"/>
<rect x="277.598" y="67.9205" width="11.5841" height="11.5841" fill="#D998F4"/>
<rect x="292.182" y="67.9205" width="11.5841" height="11.5841" fill="url(#paint5_linear_925_2699)"/>
<rect x="306.766" y="67.9205" width="11.5841" height="11.5841" fill="#D998F4"/>
<rect x="321.35" y="67.9205" width="11.5841" height="11.5841" fill="#D998F4"/>
<rect x="335.934" y="67.9205" width="11.5841" height="11.5841" fill="#D998F4"/>
<rect x="350.519" y="67.9205" width="11.5841" height="11.5841" fill="url(#paint6_linear_925_2699)"/>
<rect x="365.103" y="67.9205" width="11.5841" height="11.5841" fill="#D998F4"/>
<rect x="379.687" y="67.9205" width="11.5841" height="11.5841" fill="#D998F4"/>
<rect x="394.271" y="67.9205" width="11.5841" height="11.5841" fill="#D998F4"/>
<rect x="408.855" y="67.9205" width="11.5841" height="11.5841" fill="#D998F4"/>
<rect x="423.439" y="67.9205" width="11.5841" height="11.5841" fill="#D998F4"/>
<rect x="438.023" y="67.9205" width="11.5841" height="11.5841" fill="#D998F4"/>
<rect x="452.607" y="67.9205" width="11.5841" height="11.5841" fill="#D998F4"/>
<rect x="467.191" y="67.9205" width="11.5841" height="11.5841" fill="#D998F4"/>
<rect x="0.5" y="81.5046" width="11.5841" height="11.5841" fill="#D998F4"/>
<rect x="15.0841" y="81.5046" width="11.5841" height="11.5841" fill="#D998F4"/>
<rect x="29.6682" y="81.5046" width="11.5841" height="11.5841" fill="url(#paint7_linear_925_2699)"/>
<rect x="44.2523" y="81.5046" width="11.5841" height="11.5841" fill="#D998F4"/>
<rect x="58.8364" y="81.5046" width="11.5841" height="11.5841" fill="#D998F4"/>
<rect x="73.4205" y="81.5046" width="11.5841" height="11.5841" fill="url(#paint8_linear_925_2699)"/>
<rect x="88.0046" y="81.5046" width="11.5841" height="11.5841" fill="#D998F4"/>
<rect x="102.589" y="81.5046" width="11.5841" height="11.5841" fill="url(#paint9_linear_925_2699)"/>
<rect x="117.173" y="81.5046" width="11.5841" height="11.5841" fill="#D998F4"/>
<rect x="131.757" y="81.5046" width="11.5841" height="11.5841" fill="url(#paint10_linear_925_2699)"/>
<rect x="146.341" y="81.5046" width="11.5841" height="11.5841" fill="#D998F4"/>
<rect x="160.925" y="81.5046" width="11.5841" height="11.5841" fill="url(#paint11_linear_925_2699)"/>
<rect x="175.509" y="81.5046" width="11.5841" height="11.5841" fill="url(#paint12_linear_925_2699)"/>
<rect x="190.093" y="81.5046" width="11.5841" height="11.5841" fill="url(#paint13_linear_925_2699)"/>
<rect x="204.677" y="81.5046" width="11.5841" height="11.5841" fill="url(#paint14_linear_925_2699)"/>
<rect x="219.262" y="81.5046" width="11.5841" height="11.5841" fill="url(#paint15_linear_925_2699)"/>
<rect x="233.846" y="81.5046" width="11.5841" height="11.5841" fill="url(#paint16_linear_925_2699)"/>
<rect x="248.43" y="81.5046" width="11.5841" height="11.5841" fill="#D998F4"/>
<rect x="263.014" y="81.5046" width="11.5841" height="11.5841" fill="url(#paint17_linear_925_2699)"/>
<rect x="277.598" y="81.5046" width="11.5841" height="11.5841" fill="#D998F4"/>
<rect x="292.182" y="81.5046" width="11.5841" height="11.5841" fill="url(#paint18_linear_925_2699)"/>
<rect x="306.766" y="81.5046" width="11.5841" height="11.5841" fill="#D998F4"/>
<rect x="321.35" y="81.5046" width="11.5841" height="11.5841" fill="url(#paint19_linear_925_2699)"/>
<rect x="335.934" y="81.5046" width="11.5841" height="11.5841" fill="#D998F4"/>
<rect x="350.519" y="81.5046" width="11.5841" height="11.5841" fill="url(#paint20_linear_925_2699)"/>
<rect x="365.103" y="81.5046" width="11.5841" height="11.5841" fill="url(#paint21_linear_925_2699)"/>
<rect x="379.687" y="81.5046" width="11.5841" height="11.5841" fill="#D998F4"/>
<rect x="394.271" y="81.5046" width="11.5841" height="11.5841" fill="url(#paint22_linear_925_2699)"/>
<rect x="408.855" y="81.5046" width="11.5841" height="11.5841" fill="#D998F4"/>
<rect x="423.439" y="81.5046" width="11.5841" height="11.5841" fill="#D998F4"/>
<rect x="438.023" y="81.5046" width="11.5841" height="11.5841" fill="#D998F4"/>
<rect x="452.607" y="81.5046" width="11.5841" height="11.5841" fill="#D998F4"/>
<rect x="467.191" y="81.5046" width="11.5841" height="11.5841" fill="#D998F4"/>
<rect x="0.5" y="95.0887" width="11.5841" height="11.5841" fill="url(#paint23_linear_925_2699)"/>
<rect x="15.0841" y="95.0887" width="11.5841" height="11.5841" fill="url(#paint24_linear_925_2699)"/>
<rect x="29.6682" y="95.0887" width="11.5841" height="11.5841" fill="url(#paint25_linear_925_2699)"/>
<rect x="44.2523" y="95.0887" width="11.5841" height="11.5841" fill="url(#paint26_linear_925_2699)"/>
<rect x="58.8364" y="95.0887" width="11.5841" height="11.5841" fill="url(#paint27_linear_925_2699)"/>
<rect x="73.4205" y="95.0887" width="11.5841" height="11.5841" fill="url(#paint28_linear_925_2699)"/>
<rect x="88.0046" y="95.0887" width="11.5841" height="11.5841" fill="url(#paint29_linear_925_2699)"/>
<rect x="102.589" y="95.0887" width="11.5841" height="11.5841" fill="url(#paint30_linear_925_2699)"/>
<rect x="117.173" y="95.0887" width="11.5841" height="11.5841" fill="url(#paint31_linear_925_2699)"/>
<rect x="131.757" y="95.0887" width="11.5841" height="11.5841" fill="url(#paint32_linear_925_2699)"/>
<rect x="146.341" y="95.0887" width="11.5841" height="11.5841" fill="url(#paint33_linear_925_2699)"/>
<rect x="160.925" y="95.0887" width="11.5841" height="11.5841" fill="url(#paint34_linear_925_2699)"/>
<rect x="175.509" y="95.0887" width="11.5841" height="11.5841" fill="url(#paint35_linear_925_2699)"/>
<rect x="190.093" y="95.0887" width="11.5841" height="11.5841" fill="url(#paint36_linear_925_2699)"/>
<rect x="204.677" y="95.0887" width="11.5841" height="11.5841" fill="url(#paint37_linear_925_2699)"/>
<rect x="219.262" y="95.0887" width="11.5841" height="11.5841" fill="url(#paint38_linear_925_2699)"/>
<rect x="233.846" y="95.0887" width="11.5841" height="11.5841" fill="url(#paint39_linear_925_2699)"/>
<rect x="248.43" y="95.0887" width="11.5841" height="11.5841" fill="url(#paint40_linear_925_2699)"/>
<rect x="263.014" y="95.0887" width="11.5841" height="11.5841" fill="url(#paint41_linear_925_2699)"/>
<rect x="277.598" y="95.0887" width="11.5841" height="11.5841" fill="url(#paint42_linear_925_2699)"/>
<rect x="292.182" y="95.0887" width="11.5841" height="11.5841" fill="url(#paint43_linear_925_2699)"/>
<rect x="306.766" y="95.0887" width="11.5841" height="11.5841" fill="url(#paint44_linear_925_2699)"/>
<rect x="321.35" y="95.0887" width="11.5841" height="11.5841" fill="url(#paint45_linear_925_2699)"/>
<rect x="335.934" y="95.0887" width="11.5841" height="11.5841" fill="url(#paint46_linear_925_2699)"/>
<rect x="350.519" y="95.0887" width="11.5841" height="11.5841" fill="url(#paint47_linear_925_2699)"/>
<rect x="365.103" y="95.0887" width="11.5841" height="11.5841" fill="url(#paint48_linear_925_2699)"/>
<rect x="379.687" y="95.0887" width="11.5841" height="11.5841" fill="url(#paint49_linear_925_2699)"/>
<rect x="394.271" y="95.0887" width="11.5841" height="11.5841" fill="url(#paint50_linear_925_2699)"/>
<rect x="408.855" y="95.0887" width="11.5841" height="11.5841" fill="url(#paint51_linear_925_2699)"/>
<rect x="423.439" y="95.0887" width="11.5841" height="11.5841" fill="url(#paint52_linear_925_2699)"/>
<rect x="438.023" y="95.0887" width="11.5841" height="11.5841" fill="url(#paint53_linear_925_2699)"/>
<rect x="452.607" y="95.0887" width="11.5841" height="11.5841" fill="url(#paint54_linear_925_2699)"/>
<rect x="467.191" y="95.0887" width="11.5841" height="11.5841" fill="url(#paint55_linear_925_2699)"/>
</g>
<defs>
<linearGradient id="paint0_linear_925_2699" x1="201.677" y1="60.1285" x2="190.093" y2="60.1285" gradientUnits="userSpaceOnUse">
<stop/>
<stop offset="0.475" stop-color="#131313"/>
<stop offset="1"/>
</linearGradient>
<linearGradient id="paint1_linear_925_2699" x1="114.173" y1="73.7126" x2="102.589" y2="73.7126" gradientUnits="userSpaceOnUse">
<stop/>
<stop offset="0.475" stop-color="#131313"/>
<stop offset="1"/>
</linearGradient>
<linearGradient id="paint2_linear_925_2699" x1="172.509" y1="73.7126" x2="160.925" y2="73.7126" gradientUnits="userSpaceOnUse">
<stop/>
<stop offset="0.475" stop-color="#131313"/>
<stop offset="1"/>
</linearGradient>
<linearGradient id="paint3_linear_925_2699" x1="201.677" y1="73.7126" x2="190.093" y2="73.7126" gradientUnits="userSpaceOnUse">
<stop/>
<stop offset="0.475" stop-color="#131313"/>
<stop offset="1"/>
</linearGradient>
<linearGradient id="paint4_linear_925_2699" x1="230.846" y1="73.7126" x2="219.262" y2="73.7126" gradientUnits="userSpaceOnUse">
<stop/>
<stop offset="0.475" stop-color="#131313"/>
<stop offset="1"/>
</linearGradient>
<linearGradient id="paint5_linear_925_2699" x1="303.766" y1="73.7126" x2="292.182" y2="73.7126" gradientUnits="userSpaceOnUse">
<stop/>
<stop offset="0.475" stop-color="#131313"/>
<stop offset="1"/>
</linearGradient>
<linearGradient id="paint6_linear_925_2699" x1="362.103" y1="73.7126" x2="350.519" y2="73.7126" gradientUnits="userSpaceOnUse">
<stop/>
<stop offset="0.475" stop-color="#131313"/>
<stop offset="1"/>
</linearGradient>
<linearGradient id="paint7_linear_925_2699" x1="41.2523" y1="87.2967" x2="29.6682" y2="87.2967" gradientUnits="userSpaceOnUse">
<stop/>
<stop offset="0.475" stop-color="#131313"/>
<stop offset="1"/>
</linearGradient>
<linearGradient id="paint8_linear_925_2699" x1="85.0046" y1="87.2967" x2="73.4205" y2="87.2967" gradientUnits="userSpaceOnUse">
<stop/>
<stop offset="0.475" stop-color="#131313"/>
<stop offset="1"/>
</linearGradient>
<linearGradient id="paint9_linear_925_2699" x1="114.173" y1="87.2967" x2="102.589" y2="87.2967" gradientUnits="userSpaceOnUse">
<stop/>
<stop offset="0.475" stop-color="#131313"/>
<stop offset="1"/>
</linearGradient>
<linearGradient id="paint10_linear_925_2699" x1="143.341" y1="87.2967" x2="131.757" y2="87.2967" gradientUnits="userSpaceOnUse">
<stop/>
<stop offset="0.475" stop-color="#131313"/>
<stop offset="1"/>
</linearGradient>
<linearGradient id="paint11_linear_925_2699" x1="172.509" y1="87.2967" x2="160.925" y2="87.2967" gradientUnits="userSpaceOnUse">
<stop/>
<stop offset="0.475" stop-color="#131313"/>
<stop offset="1"/>
</linearGradient>
<linearGradient id="paint12_linear_925_2699" x1="187.093" y1="87.2967" x2="175.509" y2="87.2967" gradientUnits="userSpaceOnUse">
<stop/>
<stop offset="0.475" stop-color="#131313"/>
<stop offset="1"/>
</linearGradient>
<linearGradient id="paint13_linear_925_2699" x1="201.677" y1="87.2967" x2="190.093" y2="87.2967" gradientUnits="userSpaceOnUse">
<stop/>
<stop offset="0.475" stop-color="#131313"/>
<stop offset="1"/>
</linearGradient>
<linearGradient id="paint14_linear_925_2699" x1="216.262" y1="87.2967" x2="204.677" y2="87.2967" gradientUnits="userSpaceOnUse">
<stop/>
<stop offset="0.475" stop-color="#131313"/>
<stop offset="1"/>
</linearGradient>
<linearGradient id="paint15_linear_925_2699" x1="230.846" y1="87.2967" x2="219.262" y2="87.2967" gradientUnits="userSpaceOnUse">
<stop/>
<stop offset="0.475" stop-color="#131313"/>
<stop offset="1"/>
</linearGradient>
<linearGradient id="paint16_linear_925_2699" x1="245.43" y1="87.2967" x2="233.846" y2="87.2967" gradientUnits="userSpaceOnUse">
<stop/>
<stop offset="0.475" stop-color="#131313"/>
<stop offset="1"/>
</linearGradient>
<linearGradient id="paint17_linear_925_2699" x1="274.598" y1="87.2967" x2="263.014" y2="87.2967" gradientUnits="userSpaceOnUse">
<stop/>
<stop offset="0.475" stop-color="#131313"/>
<stop offset="1"/>
</linearGradient>
<linearGradient id="paint18_linear_925_2699" x1="303.766" y1="87.2967" x2="292.182" y2="87.2967" gradientUnits="userSpaceOnUse">
<stop/>
<stop offset="0.475" stop-color="#131313"/>
<stop offset="1"/>
</linearGradient>
<linearGradient id="paint19_linear_925_2699" x1="332.934" y1="87.2967" x2="321.35" y2="87.2967" gradientUnits="userSpaceOnUse">
<stop/>
<stop offset="0.475" stop-color="#131313"/>
<stop offset="1"/>
</linearGradient>
<linearGradient id="paint20_linear_925_2699" x1="362.103" y1="87.2967" x2="350.519" y2="87.2967" gradientUnits="userSpaceOnUse">
<stop/>
<stop offset="0.475" stop-color="#131313"/>
<stop offset="1"/>
</linearGradient>
<linearGradient id="paint21_linear_925_2699" x1="376.687" y1="87.2967" x2="365.103" y2="87.2967" gradientUnits="userSpaceOnUse">
<stop/>
<stop offset="0.475" stop-color="#131313"/>
<stop offset="1"/>
</linearGradient>
<linearGradient id="paint22_linear_925_2699" x1="405.855" y1="87.2967" x2="394.271" y2="87.2967" gradientUnits="userSpaceOnUse">
<stop/>
<stop offset="0.475" stop-color="#131313"/>
<stop offset="1"/>
</linearGradient>
<linearGradient id="paint23_linear_925_2699" x1="12.0841" y1="100.881" x2="0.5" y2="100.881" gradientUnits="userSpaceOnUse">
<stop/>
<stop offset="0.475" stop-color="#131313"/>
<stop offset="1"/>
</linearGradient>
<linearGradient id="paint24_linear_925_2699" x1="26.6682" y1="100.881" x2="15.0841" y2="100.881" gradientUnits="userSpaceOnUse">
<stop/>
<stop offset="0.475" stop-color="#131313"/>
<stop offset="1"/>
</linearGradient>
<linearGradient id="paint25_linear_925_2699" x1="41.2523" y1="100.881" x2="29.6682" y2="100.881" gradientUnits="userSpaceOnUse">
<stop/>
<stop offset="0.475" stop-color="#131313"/>
<stop offset="1"/>
</linearGradient>
<linearGradient id="paint26_linear_925_2699" x1="55.8364" y1="100.881" x2="44.2523" y2="100.881" gradientUnits="userSpaceOnUse">
<stop/>
<stop offset="0.475" stop-color="#131313"/>
<stop offset="1"/>
</linearGradient>
<linearGradient id="paint27_linear_925_2699" x1="70.4205" y1="100.881" x2="58.8364" y2="100.881" gradientUnits="userSpaceOnUse">
<stop/>
<stop offset="0.475" stop-color="#131313"/>
<stop offset="1"/>
</linearGradient>
<linearGradient id="paint28_linear_925_2699" x1="85.0046" y1="100.881" x2="73.4205" y2="100.881" gradientUnits="userSpaceOnUse">
<stop/>
<stop offset="0.475" stop-color="#131313"/>
<stop offset="1"/>
</linearGradient>
<linearGradient id="paint29_linear_925_2699" x1="99.5887" y1="100.881" x2="88.0046" y2="100.881" gradientUnits="userSpaceOnUse">
<stop/>
<stop offset="0.475" stop-color="#131313"/>
<stop offset="1"/>
</linearGradient>
<linearGradient id="paint30_linear_925_2699" x1="114.173" y1="100.881" x2="102.589" y2="100.881" gradientUnits="userSpaceOnUse">
<stop/>
<stop offset="0.475" stop-color="#131313"/>
<stop offset="1"/>
</linearGradient>
<linearGradient id="paint31_linear_925_2699" x1="128.757" y1="100.881" x2="117.173" y2="100.881" gradientUnits="userSpaceOnUse">
<stop/>
<stop offset="0.475" stop-color="#131313"/>
<stop offset="1"/>
</linearGradient>
<linearGradient id="paint32_linear_925_2699" x1="143.341" y1="100.881" x2="131.757" y2="100.881" gradientUnits="userSpaceOnUse">
<stop/>
<stop offset="0.475" stop-color="#131313"/>
<stop offset="1"/>
</linearGradient>
<linearGradient id="paint33_linear_925_2699" x1="157.925" y1="100.881" x2="146.341" y2="100.881" gradientUnits="userSpaceOnUse">
<stop/>
<stop offset="0.475" stop-color="#131313"/>
<stop offset="1"/>
</linearGradient>
<linearGradient id="paint34_linear_925_2699" x1="172.509" y1="100.881" x2="160.925" y2="100.881" gradientUnits="userSpaceOnUse">
<stop/>
<stop offset="0.475" stop-color="#131313"/>
<stop offset="1"/>
</linearGradient>
<linearGradient id="paint35_linear_925_2699" x1="187.093" y1="100.881" x2="175.509" y2="100.881" gradientUnits="userSpaceOnUse">
<stop/>
<stop offset="0.475" stop-color="#131313"/>
<stop offset="1"/>
</linearGradient>
<linearGradient id="paint36_linear_925_2699" x1="201.677" y1="100.881" x2="190.093" y2="100.881" gradientUnits="userSpaceOnUse">
<stop/>
<stop offset="0.475" stop-color="#131313"/>
<stop offset="1"/>
</linearGradient>
<linearGradient id="paint37_linear_925_2699" x1="216.262" y1="100.881" x2="204.677" y2="100.881" gradientUnits="userSpaceOnUse">
<stop/>
<stop offset="0.475" stop-color="#131313"/>
<stop offset="1"/>
</linearGradient>
<linearGradient id="paint38_linear_925_2699" x1="230.846" y1="100.881" x2="219.262" y2="100.881" gradientUnits="userSpaceOnUse">
<stop/>
<stop offset="0.475" stop-color="#131313"/>
<stop offset="1"/>
</linearGradient>
<linearGradient id="paint39_linear_925_2699" x1="245.43" y1="100.881" x2="233.846" y2="100.881" gradientUnits="userSpaceOnUse">
<stop/>
<stop offset="0.475" stop-color="#131313"/>
<stop offset="1"/>
</linearGradient>
<linearGradient id="paint40_linear_925_2699" x1="260.014" y1="100.881" x2="248.43" y2="100.881" gradientUnits="userSpaceOnUse">
<stop/>
<stop offset="0.475" stop-color="#131313"/>
<stop offset="1"/>
</linearGradient>
<linearGradient id="paint41_linear_925_2699" x1="274.598" y1="100.881" x2="263.014" y2="100.881" gradientUnits="userSpaceOnUse">
<stop/>
<stop offset="0.475" stop-color="#131313"/>
<stop offset="1"/>
</linearGradient>
<linearGradient id="paint42_linear_925_2699" x1="289.182" y1="100.881" x2="277.598" y2="100.881" gradientUnits="userSpaceOnUse">
<stop/>
<stop offset="0.475" stop-color="#131313"/>
<stop offset="1"/>
</linearGradient>
<linearGradient id="paint43_linear_925_2699" x1="303.766" y1="100.881" x2="292.182" y2="100.881" gradientUnits="userSpaceOnUse">
<stop/>
<stop offset="0.475" stop-color="#131313"/>
<stop offset="1"/>
</linearGradient>
<linearGradient id="paint44_linear_925_2699" x1="318.35" y1="100.881" x2="306.766" y2="100.881" gradientUnits="userSpaceOnUse">
<stop/>
<stop offset="0.475" stop-color="#131313"/>
<stop offset="1"/>
</linearGradient>
<linearGradient id="paint45_linear_925_2699" x1="332.934" y1="100.881" x2="321.35" y2="100.881" gradientUnits="userSpaceOnUse">
<stop/>
<stop offset="0.475" stop-color="#131313"/>
<stop offset="1"/>
</linearGradient>
<linearGradient id="paint46_linear_925_2699" x1="347.519" y1="100.881" x2="335.934" y2="100.881" gradientUnits="userSpaceOnUse">
<stop/>
<stop offset="0.475" stop-color="#131313"/>
<stop offset="1"/>
</linearGradient>
<linearGradient id="paint47_linear_925_2699" x1="362.103" y1="100.881" x2="350.519" y2="100.881" gradientUnits="userSpaceOnUse">
<stop/>
<stop offset="0.475" stop-color="#131313"/>
<stop offset="1"/>
</linearGradient>
<linearGradient id="paint48_linear_925_2699" x1="376.687" y1="100.881" x2="365.103" y2="100.881" gradientUnits="userSpaceOnUse">
<stop/>
<stop offset="0.475" stop-color="#131313"/>
<stop offset="1"/>
</linearGradient>
<linearGradient id="paint49_linear_925_2699" x1="391.271" y1="100.881" x2="379.687" y2="100.881" gradientUnits="userSpaceOnUse">
<stop/>
<stop offset="0.475" stop-color="#131313"/>
<stop offset="1"/>
</linearGradient>
<linearGradient id="paint50_linear_925_2699" x1="405.855" y1="100.881" x2="394.271" y2="100.881" gradientUnits="userSpaceOnUse">
<stop/>
<stop offset="0.475" stop-color="#131313"/>
<stop offset="1"/>
</linearGradient>
<linearGradient id="paint51_linear_925_2699" x1="420.439" y1="100.881" x2="408.855" y2="100.881" gradientUnits="userSpaceOnUse">
<stop/>
<stop offset="0.475" stop-color="#131313"/>
<stop offset="1"/>
</linearGradient>
<linearGradient id="paint52_linear_925_2699" x1="435.023" y1="100.881" x2="423.439" y2="100.881" gradientUnits="userSpaceOnUse">
<stop/>
<stop offset="0.475" stop-color="#131313"/>
<stop offset="1"/>
</linearGradient>
<linearGradient id="paint53_linear_925_2699" x1="449.607" y1="100.881" x2="438.023" y2="100.881" gradientUnits="userSpaceOnUse">
<stop/>
<stop offset="0.475" stop-color="#131313"/>
<stop offset="1"/>
</linearGradient>
<linearGradient id="paint54_linear_925_2699" x1="464.191" y1="100.881" x2="452.607" y2="100.881" gradientUnits="userSpaceOnUse">
<stop/>
<stop offset="0.475" stop-color="#131313"/>
<stop offset="1"/>
</linearGradient>
<linearGradient id="paint55_linear_925_2699" x1="478.775" y1="100.881" x2="467.191" y2="100.881" gradientUnits="userSpaceOnUse">
<stop/>
<stop offset="0.475" stop-color="#131313"/>
<stop offset="1"/>
</linearGradient>
<clipPath id="clip0_925_2699">
<rect width="479.5" height="108" fill="white" transform="translate(0.5)"/>
</clipPath>
</defs>
</svg>
