<svg width="480" height="108" viewBox="0 0 480 108" fill="none" xmlns="http://www.w3.org/2000/svg">
<rect width="11.5841" height="11.5841" fill="#55DEB4"/>
<rect x="14.5841" width="11.5841" height="11.5841" fill="#55DEB4"/>
<rect x="29.1682" width="11.5841" height="11.5841" fill="#55DEB4"/>
<rect x="43.7523" width="11.5841" height="11.5841" fill="#55DEB4"/>
<rect x="58.3364" width="11.5841" height="11.5841" fill="#55DEB4"/>
<rect x="72.9205" width="11.5841" height="11.5841" fill="#55DEB4"/>
<rect x="87.5046" width="11.5841" height="11.5841" fill="#55DEB4"/>
<rect x="102.089" width="11.5841" height="11.5841" fill="#55DEB4"/>
<rect x="116.673" width="11.5841" height="11.5841" fill="#55DEB4"/>
<rect x="131.257" width="11.5841" height="11.5841" fill="#55DEB4"/>
<rect x="145.841" width="11.5841" height="11.5841" fill="#55DEB4"/>
<rect x="160.425" width="11.5841" height="11.5841" fill="#55DEB4"/>
<rect x="175.009" width="11.5841" height="11.5841" fill="#55DEB4"/>
<rect x="189.593" width="11.5841" height="11.5841" fill="#55DEB4"/>
<rect x="204.177" width="11.5841" height="11.5841" fill="#55DEB4"/>
<rect x="218.762" width="11.5841" height="11.5841" fill="#55DEB4"/>
<rect x="233.346" width="11.5841" height="11.5841" fill="#55DEB4"/>
<rect x="247.93" width="11.5841" height="11.5841" fill="#55DEB4"/>
<rect x="262.514" width="11.5841" height="11.5841" fill="#55DEB4"/>
<rect x="277.098" width="11.5841" height="11.5841" fill="#55DEB4"/>
<rect width="11.5841" height="11.5841" transform="matrix(-1 0 0 1 303.266 0)" fill="#55DEB4"/>
<rect width="11.5841" height="11.5841" transform="matrix(-1 0 0 1 317.85 0)" fill="#55DEB4"/>
<rect width="11.5841" height="11.5841" transform="matrix(-1 0 0 1 332.434 0)" fill="#55DEB4"/>
<rect width="11.5841" height="11.5841" transform="matrix(-1 0 0 1 347.019 0)" fill="#55DEB4"/>
<rect x="350.019" width="11.5841" height="11.5841" fill="#55DEB4"/>
<rect width="11.5841" height="11.5841" transform="matrix(-1 0 0 1 376.187 0)" fill="#55DEB4"/>
<rect width="11.5841" height="11.5841" transform="matrix(-1 0 0 1 390.771 0)" fill="#55DEB4"/>
<rect x="393.771" width="11.5841" height="11.5841" fill="#55DEB4"/>
<rect width="11.5841" height="11.5841" transform="matrix(-1 0 0 1 419.939 0)" fill="#55DEB4"/>
<rect x="422.939" width="11.5841" height="11.5841" fill="#55DEB4"/>
<rect x="437.523" width="11.5841" height="11.5841" fill="#55DEB4"/>
<rect x="452.107" width="11.5841" height="11.5841" fill="#55DEB4"/>
<rect x="466.691" width="11.5841" height="11.5841" fill="#55DEB4"/>
<rect y="13.5841" width="11.5841" height="11.5841" fill="#55DEB4"/>
<rect width="11.5841" height="11.5841" transform="matrix(-1 0 0 1 26.1682 13.5841)" fill="#55DEB4"/>
<rect x="29.1682" y="13.5841" width="11.5841" height="11.5841" fill="#55DEB4"/>
<rect x="43.7523" y="13.5841" width="11.5841" height="11.5841" fill="#55DEB4"/>
<rect x="58.3364" y="13.5841" width="11.5841" height="11.5841" fill="#55DEB4"/>
<rect x="72.9205" y="13.5841" width="11.5841" height="11.5841" fill="#55DEB4"/>
<rect width="11.5841" height="11.5841" transform="matrix(-1 0 0 1 99.0887 13.5841)" fill="#55DEB4"/>
<rect width="11.5841" height="11.5841" transform="matrix(-1 0 0 1 113.673 13.5841)" fill="#55DEB4"/>
<rect width="11.5841" height="11.5841" transform="matrix(-1 0 0 1 128.257 13.5841)" fill="#55DEB4"/>
<rect width="11.5841" height="11.5841" transform="matrix(-1 0 0 1 142.841 13.5841)" fill="#55DEB4"/>
<rect width="11.5841" height="11.5841" transform="matrix(-1 0 0 1 157.425 13.5841)" fill="#55DEB4"/>
<rect x="160.425" y="13.5841" width="11.5841" height="11.5841" fill="#55DEB4"/>
<rect x="175.009" y="13.5841" width="11.5841" height="11.5841" fill="#55DEB4"/>
<rect x="189.593" y="13.5841" width="11.5841" height="11.5841" fill="#55DEB4"/>
<rect x="204.177" y="13.5841" width="11.5841" height="11.5841" fill="#55DEB4"/>
<rect x="218.762" y="13.5841" width="11.5841" height="11.5841" fill="#55DEB4"/>
<rect x="233.346" y="13.5841" width="11.5841" height="11.5841" fill="#55DEB4"/>
<rect x="247.93" y="13.5841" width="11.5841" height="11.5841" fill="#55DEB4"/>
<rect x="262.514" y="13.5841" width="11.5841" height="11.5841" fill="#55DEB4"/>
<rect x="277.098" y="13.5841" width="11.5841" height="11.5841" fill="#55DEB4"/>
<rect x="291.682" y="13.5841" width="11.5841" height="11.5841" fill="#55DEB4"/>
<rect x="306.266" y="13.5841" width="11.5841" height="11.5841" fill="#55DEB4"/>
<rect x="320.85" y="13.5841" width="11.5841" height="11.5841" fill="#55DEB4"/>
<rect x="335.434" y="13.5841" width="11.5841" height="11.5841" fill="#55DEB4"/>
<rect x="350.019" y="13.5841" width="11.5841" height="11.5841" fill="#55DEB4"/>
<rect x="364.603" y="13.5841" width="11.5841" height="11.5841" fill="#55DEB4"/>
<rect x="379.187" y="13.5841" width="11.5841" height="11.5841" fill="#55DEB4"/>
<rect x="393.771" y="13.5841" width="11.5841" height="11.5841" fill="#55DEB4"/>
<rect x="408.355" y="13.5841" width="11.5841" height="11.5841" fill="#55DEB4"/>
<rect x="422.939" y="13.5841" width="11.5841" height="11.5841" fill="#55DEB4"/>
<rect x="437.523" y="13.5841" width="11.5841" height="11.5841" fill="#55DEB4"/>
<rect x="452.107" y="13.5841" width="11.5841" height="11.5841" fill="#55DEB4"/>
<rect x="466.691" y="13.5841" width="11.5841" height="11.5841" fill="#55DEB4"/>
<rect y="27.1682" width="11.5841" height="11.5841" fill="#55DEB4"/>
<rect x="14.5841" y="27.1682" width="11.5841" height="11.5841" fill="#55DEB4"/>
<rect x="29.1682" y="27.1682" width="11.5841" height="11.5841" fill="#55DEB4"/>
<rect x="43.7523" y="27.1682" width="11.5841" height="11.5841" fill="#55DEB4"/>
<rect width="11.5841" height="11.5841" transform="matrix(-1 0 0 1 69.9205 27.1682)" fill="#55DEB4"/>
<rect width="11.5841" height="11.5841" transform="matrix(-1 0 0 1 84.5046 27.1682)" fill="#55DEB4"/>
<rect width="11.5841" height="11.5841" transform="matrix(-1 0 0 1 99.0887 27.1682)" fill="#55DEB4"/>
<rect width="11.5841" height="11.5841" transform="matrix(-1 0 0 1 113.673 27.1682)" fill="#55DEB4"/>
<rect width="11.5841" height="11.5841" transform="matrix(-1 0 0 1 128.257 27.1682)" fill="#55DEB4"/>
<rect width="11.5841" height="11.5841" transform="matrix(-1 0 0 1 142.841 27.1682)" fill="#55DEB4"/>
<rect width="11.5841" height="11.5841" transform="matrix(-1 0 0 1 157.425 27.1682)" fill="#55DEB4"/>
<rect width="11.5841" height="11.5841" transform="matrix(-1 0 0 1 172.009 27.1682)" fill="#55DEB4"/>
<rect width="11.5841" height="11.5841" transform="matrix(-1 0 0 1 186.593 27.1682)" fill="#55DEB4"/>
<rect width="11.5841" height="11.5841" transform="matrix(-1 0 0 1 201.177 27.1682)" fill="#55DEB4"/>
<rect width="11.5841" height="11.5841" transform="matrix(-1 0 0 1 215.762 27.1682)" fill="#55DEB4"/>
<rect width="11.5841" height="11.5841" transform="matrix(-1 0 0 1 230.346 27.1682)" fill="#55DEB4"/>
<rect width="11.5841" height="11.5841" transform="matrix(-1 0 0 1 244.93 27.1682)" fill="#55DEB4"/>
<rect width="11.5841" height="11.5841" transform="matrix(-1 0 0 1 259.514 27.1682)" fill="#55DEB4"/>
<rect width="11.5841" height="11.5841" transform="matrix(-1 0 0 1 274.098 27.1682)" fill="#55DEB4"/>
<rect width="11.5841" height="11.5841" transform="matrix(-1 0 0 1 288.682 27.1682)" fill="#55DEB4"/>
<rect width="11.5841" height="11.5841" transform="matrix(-1 0 0 1 303.266 27.1682)" fill="#55DEB4"/>
<rect width="11.5841" height="11.5841" transform="matrix(-1 0 0 1 317.85 27.1682)" fill="#55DEB4"/>
<rect x="320.85" y="27.1682" width="11.5841" height="11.5841" fill="#55DEB4"/>
<rect x="335.434" y="27.1682" width="11.5841" height="11.5841" fill="#55DEB4"/>
<rect x="350.019" y="27.1682" width="11.5841" height="11.5841" fill="#55DEB4"/>
<rect x="364.603" y="27.1682" width="11.5841" height="11.5841" fill="#55DEB4"/>
<rect x="379.187" y="27.1682" width="11.5841" height="11.5841" fill="#55DEB4"/>
<rect x="393.771" y="27.1682" width="11.5841" height="11.5841" fill="#55DEB4"/>
<rect x="408.355" y="27.1682" width="11.5841" height="11.5841" fill="#55DEB4"/>
<rect x="422.939" y="27.1682" width="11.5841" height="11.5841" fill="#55DEB4"/>
<rect x="437.523" y="27.1682" width="11.5841" height="11.5841" fill="#55DEB4"/>
<rect x="452.107" y="27.1682" width="11.5841" height="11.5841" fill="#55DEB4"/>
<rect x="466.691" y="27.1682" width="11.5841" height="11.5841" fill="#55DEB4"/>
<rect y="40.7523" width="11.5841" height="11.5841" fill="#55DEB4"/>
<rect x="14.5841" y="40.7523" width="11.5841" height="11.5841" fill="#55DEB4"/>
<rect x="29.1682" y="40.7523" width="11.5841" height="11.5841" fill="#55DEB4"/>
<rect x="43.7523" y="40.7523" width="11.5841" height="11.5841" fill="#55DEB4"/>
<rect x="58.3364" y="40.7523" width="11.5841" height="11.5841" fill="#55DEB4"/>
<rect x="72.9205" y="40.7523" width="11.5841" height="11.5841" fill="#55DEB4"/>
<rect x="87.5046" y="40.7523" width="11.5841" height="11.5841" fill="#55DEB4"/>
<rect x="102.089" y="40.7523" width="11.5841" height="11.5841" fill="#55DEB4"/>
<rect x="116.673" y="40.7523" width="11.5841" height="11.5841" fill="#55DEB4"/>
<rect x="131.257" y="40.7523" width="11.5841" height="11.5841" fill="#55DEB4"/>
<rect x="145.841" y="40.7523" width="11.5841" height="11.5841" fill="#55DEB4"/>
<rect x="160.425" y="40.7523" width="11.5841" height="11.5841" fill="#55DEB4"/>
<rect x="175.009" y="40.7523" width="11.5841" height="11.5841" fill="#55DEB4"/>
<rect x="189.593" y="40.7523" width="11.5841" height="11.5841" fill="#55DEB4"/>
<rect x="204.177" y="40.7523" width="11.5841" height="11.5841" fill="#55DEB4"/>
<rect x="218.762" y="40.7523" width="11.5841" height="11.5841" fill="#55DEB4"/>
<rect x="233.346" y="40.7523" width="11.5841" height="11.5841" fill="#55DEB4"/>
<rect x="247.93" y="40.7523" width="11.5841" height="11.5841" fill="#55DEB4"/>
<rect x="262.514" y="40.7523" width="11.5841" height="11.5841" fill="#55DEB4"/>
<rect x="277.098" y="40.7523" width="11.5841" height="11.5841" fill="#55DEB4"/>
<rect x="291.682" y="40.7523" width="11.5841" height="11.5841" fill="#55DEB4"/>
<rect x="306.266" y="40.7523" width="11.5841" height="11.5841" fill="#55DEB4"/>
<rect x="320.85" y="40.7523" width="11.5841" height="11.5841" fill="#55DEB4"/>
<rect x="335.434" y="40.7523" width="11.5841" height="11.5841" fill="#55DEB4"/>
<rect x="350.019" y="40.7523" width="11.5841" height="11.5841" fill="#55DEB4"/>
<rect x="364.603" y="40.7523" width="11.5841" height="11.5841" fill="#55DEB4"/>
<rect x="379.187" y="40.7523" width="11.5841" height="11.5841" fill="#55DEB4"/>
<rect x="393.771" y="40.7523" width="11.5841" height="11.5841" fill="#55DEB4"/>
<rect x="408.355" y="40.7523" width="11.5841" height="11.5841" fill="#55DEB4"/>
<rect x="422.939" y="40.7523" width="11.5841" height="11.5841" fill="#55DEB4"/>
<rect x="437.523" y="40.7523" width="11.5841" height="11.5841" fill="#55DEB4"/>
<rect x="452.107" y="40.7523" width="11.5841" height="11.5841" fill="#55DEB4"/>
<rect x="466.691" y="40.7523" width="11.5841" height="11.5841" fill="#55DEB4"/>
<rect y="54.3364" width="11.5841" height="11.5841" fill="#55DEB4"/>
<rect x="14.5841" y="54.3364" width="11.5841" height="11.5841" fill="#55DEB4"/>
<rect x="29.1682" y="54.3364" width="11.5841" height="11.5841" fill="#55DEB4"/>
<rect x="43.7523" y="54.3364" width="11.5841" height="11.5841" fill="#55DEB4"/>
<rect x="58.3364" y="54.3364" width="11.5841" height="11.5841" fill="#55DEB4"/>
<rect x="72.9205" y="54.3364" width="11.5841" height="11.5841" fill="#55DEB4"/>
<rect x="87.5046" y="54.3364" width="11.5841" height="11.5841" fill="#55DEB4"/>
<rect x="102.089" y="54.3364" width="11.5841" height="11.5841" fill="#55DEB4"/>
<rect x="116.673" y="54.3364" width="11.5841" height="11.5841" fill="#55DEB4"/>
<rect x="131.257" y="54.3364" width="11.5841" height="11.5841" fill="#55DEB4"/>
<rect x="145.841" y="54.3364" width="11.5841" height="11.5841" fill="#55DEB4"/>
<rect x="160.425" y="54.3364" width="11.5841" height="11.5841" fill="#55DEB4"/>
<rect x="175.009" y="54.3364" width="11.5841" height="11.5841" fill="#55DEB4"/>
<rect x="189.593" y="54.3364" width="11.5841" height="11.5841" fill="black"/>
<rect x="204.177" y="54.3364" width="11.5841" height="11.5841" fill="#55DEB4"/>
<rect x="218.762" y="54.3364" width="11.5841" height="11.5841" fill="#55DEB4"/>
<rect x="233.346" y="54.3364" width="11.5841" height="11.5841" fill="#55DEB4"/>
<rect x="247.93" y="54.3364" width="11.5841" height="11.5841" fill="#55DEB4"/>
<rect x="262.514" y="54.3364" width="11.5841" height="11.5841" fill="#55DEB4"/>
<rect x="277.098" y="54.3364" width="11.5841" height="11.5841" fill="#55DEB4"/>
<rect x="291.682" y="54.3364" width="11.5841" height="11.5841" fill="#55DEB4"/>
<rect x="306.266" y="54.3364" width="11.5841" height="11.5841" fill="#55DEB4"/>
<rect x="320.85" y="54.3364" width="11.5841" height="11.5841" fill="#55DEB4"/>
<rect x="335.434" y="54.3364" width="11.5841" height="11.5841" fill="#55DEB4"/>
<rect x="350.019" y="54.3364" width="11.5841" height="11.5841" fill="#55DEB4"/>
<rect x="364.603" y="54.3364" width="11.5841" height="11.5841" fill="#55DEB4"/>
<rect x="379.187" y="54.3364" width="11.5841" height="11.5841" fill="#55DEB4"/>
<rect x="393.771" y="54.3364" width="11.5841" height="11.5841" fill="#55DEB4"/>
<rect x="408.355" y="54.3364" width="11.5841" height="11.5841" fill="#55DEB4"/>
<rect x="422.939" y="54.3364" width="11.5841" height="11.5841" fill="#55DEB4"/>
<rect x="437.523" y="54.3364" width="11.5841" height="11.5841" fill="#55DEB4"/>
<rect x="452.107" y="54.3364" width="11.5841" height="11.5841" fill="#55DEB4"/>
<rect x="466.691" y="54.3364" width="11.5841" height="11.5841" fill="#55DEB4"/>
<rect y="67.9205" width="11.5841" height="11.5841" fill="#55DEB4"/>
<rect x="14.5841" y="67.9205" width="11.5841" height="11.5841" fill="#55DEB4"/>
<rect x="29.1682" y="67.9205" width="11.5841" height="11.5841" fill="#55DEB4"/>
<rect x="43.7523" y="67.9205" width="11.5841" height="11.5841" fill="#55DEB4"/>
<rect x="58.3364" y="67.9205" width="11.5841" height="11.5841" fill="#55DEB4"/>
<rect x="72.9205" y="67.9205" width="11.5841" height="11.5841" fill="#55DEB4"/>
<rect x="87.5046" y="67.9205" width="11.5841" height="11.5841" fill="#55DEB4"/>
<rect x="102.089" y="67.9205" width="11.5841" height="11.5841" fill="black"/>
<rect x="116.673" y="67.9205" width="11.5841" height="11.5841" fill="#55DEB4"/>
<rect x="131.257" y="67.9205" width="11.5841" height="11.5841" fill="#55DEB4"/>
<rect x="145.841" y="67.9205" width="11.5841" height="11.5841" fill="#55DEB4"/>
<rect x="160.425" y="67.9205" width="11.5841" height="11.5841" fill="black"/>
<rect x="175.009" y="67.9205" width="11.5841" height="11.5841" fill="#55DEB4"/>
<rect x="189.593" y="67.9205" width="11.5841" height="11.5841" fill="black"/>
<rect x="204.177" y="67.9205" width="11.5841" height="11.5841" fill="#55DEB4"/>
<rect x="218.762" y="67.9205" width="11.5841" height="11.5841" fill="black"/>
<rect x="233.346" y="67.9205" width="11.5841" height="11.5841" fill="#55DEB4"/>
<rect x="247.93" y="67.9205" width="11.5841" height="11.5841" fill="#55DEB4"/>
<rect x="262.514" y="67.9205" width="11.5841" height="11.5841" fill="#55DEB4"/>
<rect x="277.098" y="67.9205" width="11.5841" height="11.5841" fill="#55DEB4"/>
<rect x="291.682" y="67.9205" width="11.5841" height="11.5841" fill="black"/>
<rect x="306.266" y="67.9205" width="11.5841" height="11.5841" fill="#55DEB4"/>
<rect x="320.85" y="67.9205" width="11.5841" height="11.5841" fill="#55DEB4"/>
<rect x="335.434" y="67.9205" width="11.5841" height="11.5841" fill="#55DEB4"/>
<rect x="350.019" y="67.9205" width="11.5841" height="11.5841" fill="black"/>
<rect x="364.603" y="67.9205" width="11.5841" height="11.5841" fill="#55DEB4"/>
<rect x="379.187" y="67.9205" width="11.5841" height="11.5841" fill="#55DEB4"/>
<rect x="393.771" y="67.9205" width="11.5841" height="11.5841" fill="#55DEB4"/>
<rect x="408.355" y="67.9205" width="11.5841" height="11.5841" fill="#55DEB4"/>
<rect x="422.939" y="67.9205" width="11.5841" height="11.5841" fill="#55DEB4"/>
<rect x="437.523" y="67.9205" width="11.5841" height="11.5841" fill="#55DEB4"/>
<rect x="452.107" y="67.9205" width="11.5841" height="11.5841" fill="#55DEB4"/>
<rect x="466.691" y="67.9205" width="11.5841" height="11.5841" fill="#55DEB4"/>
<rect y="81.5046" width="11.5841" height="11.5841" fill="#55DEB4"/>
<rect x="14.5841" y="81.5046" width="11.5841" height="11.5841" fill="#55DEB4"/>
<rect x="29.1682" y="81.5046" width="11.5841" height="11.5841" fill="black"/>
<rect x="43.7523" y="81.5046" width="11.5841" height="11.5841" fill="#55DEB4"/>
<rect x="58.3364" y="81.5046" width="11.5841" height="11.5841" fill="#55DEB4"/>
<rect x="72.9205" y="81.5046" width="11.5841" height="11.5841" fill="black"/>
<rect x="87.5046" y="81.5046" width="11.5841" height="11.5841" fill="#55DEB4"/>
<rect x="102.089" y="81.5046" width="11.5841" height="11.5841" fill="black"/>
<rect x="116.673" y="81.5046" width="11.5841" height="11.5841" fill="#55DEB4"/>
<rect x="131.257" y="81.5046" width="11.5841" height="11.5841" fill="black"/>
<rect x="145.841" y="81.5046" width="11.5841" height="11.5841" fill="#55DEB4"/>
<rect x="160.425" y="81.5046" width="11.5841" height="11.5841" fill="black"/>
<rect x="175.009" y="81.5046" width="11.5841" height="11.5841" fill="black"/>
<rect x="189.593" y="81.5046" width="11.5841" height="11.5841" fill="black"/>
<rect x="204.177" y="81.5046" width="11.5841" height="11.5841" fill="black"/>
<rect x="218.762" y="81.5046" width="11.5841" height="11.5841" fill="black"/>
<rect x="233.346" y="81.5046" width="11.5841" height="11.5841" fill="black"/>
<rect x="247.93" y="81.5046" width="11.5841" height="11.5841" fill="#55DEB4"/>
<rect x="262.514" y="81.5046" width="11.5841" height="11.5841" fill="black"/>
<rect x="277.098" y="81.5046" width="11.5841" height="11.5841" fill="#55DEB4"/>
<rect x="291.682" y="81.5046" width="11.5841" height="11.5841" fill="black"/>
<rect x="306.266" y="81.5046" width="11.5841" height="11.5841" fill="#55DEB4"/>
<rect x="320.85" y="81.5046" width="11.5841" height="11.5841" fill="black"/>
<rect x="335.434" y="81.5046" width="11.5841" height="11.5841" fill="#55DEB4"/>
<rect x="350.019" y="81.5046" width="11.5841" height="11.5841" fill="black"/>
<rect x="364.603" y="81.5046" width="11.5841" height="11.5841" fill="black"/>
<rect x="379.187" y="81.5046" width="11.5841" height="11.5841" fill="#55DEB4"/>
<rect x="393.771" y="81.5046" width="11.5841" height="11.5841" fill="black"/>
<rect x="408.355" y="81.5046" width="11.5841" height="11.5841" fill="#55DEB4"/>
<rect x="422.939" y="81.5046" width="11.5841" height="11.5841" fill="#55DEB4"/>
<rect x="437.523" y="81.5046" width="11.5841" height="11.5841" fill="#55DEB4"/>
<rect x="452.107" y="81.5046" width="11.5841" height="11.5841" fill="#55DEB4"/>
<rect x="466.691" y="81.5046" width="11.5841" height="11.5841" fill="#55DEB4"/>
<rect y="95.0887" width="11.5841" height="11.5841" fill="black"/>
<rect x="14.5841" y="95.0887" width="11.5841" height="11.5841" fill="black"/>
<rect x="29.1682" y="95.0887" width="11.5841" height="11.5841" fill="black"/>
<rect x="43.7523" y="95.0887" width="11.5841" height="11.5841" fill="black"/>
<rect x="58.3364" y="95.0887" width="11.5841" height="11.5841" fill="black"/>
<rect x="72.9205" y="95.0887" width="11.5841" height="11.5841" fill="black"/>
<rect x="87.5046" y="95.0887" width="11.5841" height="11.5841" fill="black"/>
<rect x="102.089" y="95.0887" width="11.5841" height="11.5841" fill="black"/>
<rect x="116.673" y="95.0887" width="11.5841" height="11.5841" fill="black"/>
<rect x="131.257" y="95.0887" width="11.5841" height="11.5841" fill="black"/>
<rect x="145.841" y="95.0887" width="11.5841" height="11.5841" fill="black"/>
<rect x="160.425" y="95.0887" width="11.5841" height="11.5841" fill="black"/>
<rect x="175.009" y="95.0887" width="11.5841" height="11.5841" fill="black"/>
<rect x="189.593" y="95.0887" width="11.5841" height="11.5841" fill="black"/>
<rect x="204.177" y="95.0887" width="11.5841" height="11.5841" fill="black"/>
<rect x="218.762" y="95.0887" width="11.5841" height="11.5841" fill="black"/>
<rect x="233.346" y="95.0887" width="11.5841" height="11.5841" fill="black"/>
<rect x="247.93" y="95.0887" width="11.5841" height="11.5841" fill="black"/>
<rect x="262.514" y="95.0887" width="11.5841" height="11.5841" fill="black"/>
<rect x="277.098" y="95.0887" width="11.5841" height="11.5841" fill="black"/>
<rect x="291.682" y="95.0887" width="11.5841" height="11.5841" fill="black"/>
<rect x="306.266" y="95.0887" width="11.5841" height="11.5841" fill="black"/>
<rect x="320.85" y="95.0887" width="11.5841" height="11.5841" fill="black"/>
<rect x="335.434" y="95.0887" width="11.5841" height="11.5841" fill="black"/>
<rect x="350.019" y="95.0887" width="11.5841" height="11.5841" fill="black"/>
<rect x="364.603" y="95.0887" width="11.5841" height="11.5841" fill="black"/>
<rect x="379.187" y="95.0887" width="11.5841" height="11.5841" fill="black"/>
<rect x="393.771" y="95.0887" width="11.5841" height="11.5841" fill="black"/>
<rect x="408.355" y="95.0887" width="11.5841" height="11.5841" fill="black"/>
<rect x="422.939" y="95.0887" width="11.5841" height="11.5841" fill="black"/>
<rect x="437.523" y="95.0887" width="11.5841" height="11.5841" fill="black"/>
<rect x="452.107" y="95.0887" width="11.5841" height="11.5841" fill="black"/>
<rect x="466.691" y="95.0887" width="11.5841" height="11.5841" fill="black"/>
</svg>
