<svg width="95" height="63" viewBox="0 0 95 63" fill="none" xmlns="http://www.w3.org/2000/svg">
<path d="M16 31.105V9H16.7934V30.331H27.6873V31.105H16Z" fill="#38BDF8"/>
<path d="M37.0412 31.105H36.2478V13.6749C36.2478 13.0763 36.2478 12.55 36.2478 12.0959C36.2478 11.6419 36.2478 11.2291 36.2478 10.8576C36.2682 10.4861 36.2783 10.1661 36.2783 9.89782C36.0342 10.1042 35.7901 10.3106 35.546 10.517C35.3222 10.7028 35.017 10.9401 34.6305 11.2291L30.8772 14.0464L30.3889 13.3962L36.3394 9H37.0412V31.105Z" fill="#A21CAF"/>
<path d="M61.8421 9L53.6336 31.105H52.8707L44.6621 9H45.5165L52.1078 26.6778C52.2502 27.07 52.3926 27.4621 52.535 27.8543C52.6774 28.2258 52.8097 28.5973 52.9317 28.9688C53.0538 29.3197 53.1657 29.6499 53.2674 29.9595C53.3691 29.6499 53.4708 29.33 53.5725 28.9998C53.6946 28.6696 53.8268 28.3187 53.9692 27.9472C54.1116 27.555 54.2642 27.1319 54.427 26.6778L60.9877 9H61.8421Z" fill="#FB923C"/>
<path d="M79 31.105H67.2517V9H79V9.77399H68.0451V19.0618H78.3897V19.8358H68.0451V30.331H79V31.105Z" fill="#4ADE80"/>
<path d="M68.1509 43.693C68.1509 44.1884 68.1273 44.6837 68.08 45.1791C68.0485 45.6584 68.0013 46.1458 67.9383 46.6412H68.0092C68.0879 46.4175 68.1982 46.1937 68.3399 45.97C68.4974 45.7463 68.6628 45.5226 68.836 45.2989C69.025 45.0752 69.2061 44.8595 69.3794 44.6518L72.4742 40.673H76.703L72.1435 46.3535L76.9629 53.7598H72.6396L69.5448 48.4628L68.1509 49.6852V53.7598H64.371V35.5437H68.1509V43.693Z" fill="white"/>
<path d="M57.9438 53.9998C56.7153 53.9998 55.66 53.7681 54.7781 53.3047C53.8961 52.8254 53.2188 52.0903 52.7463 51.0996C52.2738 50.1089 52.0376 48.8386 52.0376 47.2886C52.0376 45.6907 52.2975 44.3884 52.8172 43.3817C53.3527 42.3751 54.0851 41.632 55.0143 41.1527C55.9593 40.6733 57.0381 40.4336 58.2509 40.4336C59.0384 40.4336 59.7707 40.5215 60.448 40.6972C61.1252 40.873 61.6922 41.0807 62.1489 41.3204L61.0386 44.0049C60.5661 43.7972 60.133 43.6294 59.7392 43.5016C59.3612 43.3737 58.9439 43.3098 58.4871 43.3098C57.9359 43.3098 57.4634 43.4616 57.0696 43.7652C56.6917 44.0529 56.4003 44.4923 56.1955 45.0835C55.9908 45.6587 55.8884 46.3858 55.8884 47.2646C55.8884 48.1275 55.9908 48.8466 56.1955 49.4218C56.416 49.9811 56.7153 50.4045 57.0933 50.6922C57.487 50.9638 57.9516 51.0996 58.4871 51.0996C59.0856 51.0996 59.6526 51.0037 60.1881 50.812C60.7393 50.6043 61.2591 50.3246 61.7473 49.9731V53.0171C61.2276 53.3686 60.6685 53.6163 60.07 53.7601C59.4872 53.9199 58.7785 53.9998 57.9438 53.9998Z" fill="white"/>
<path d="M44.5205 40.4089C46.1113 40.4089 47.3397 40.7924 48.206 41.5594C49.088 42.3104 49.529 43.4689 49.529 45.0349V53.7594H46.9066L46.1743 51.9858H46.0798C45.7333 52.4492 45.3789 52.8327 45.0166 53.1363C44.6544 53.4399 44.237 53.6556 43.7645 53.7834C43.292 53.9272 42.7172 53.9991 42.0399 53.9991C41.3312 53.9991 40.6933 53.8553 40.1263 53.5677C39.5751 53.2641 39.1341 52.8087 38.8034 52.2015C38.4726 51.5783 38.3073 50.7953 38.3073 49.8526C38.3073 48.4624 38.7561 47.4397 39.6539 46.7846C40.5673 46.1135 41.9061 45.7459 43.67 45.682L45.749 45.6101V45.0349C45.749 44.3478 45.5994 43.8444 45.3001 43.5249C45.0009 43.2053 44.5914 43.0455 44.0717 43.0455C43.5362 43.0455 42.9771 43.1414 42.3943 43.3331C41.8116 43.5089 41.2288 43.7326 40.6461 44.0042L39.4885 41.5834C40.1815 41.2159 40.9453 40.9283 41.7801 40.7205C42.6306 40.5128 43.544 40.4089 44.5205 40.4089ZM44.6623 47.7433C43.733 47.7753 43.0794 47.983 42.7014 48.3665C42.3392 48.75 42.1581 49.2533 42.1581 49.8765C42.1581 50.4198 42.2841 50.8113 42.5361 51.051C42.8038 51.2747 43.1503 51.3865 43.5755 51.3865C44.174 51.3865 44.6859 51.1628 45.1111 50.7154C45.5521 50.252 45.7726 49.6049 45.7726 48.774V47.6954L44.6623 47.7433Z" fill="white"/>
<path d="M34.6732 51.1477C35.0512 51.1477 35.3977 51.1078 35.7127 51.0279C36.0435 50.948 36.3821 50.8521 36.7286 50.7402V53.4007C36.3348 53.5605 35.8702 53.6964 35.3347 53.8082C34.815 53.936 34.2008 54 33.492 54C32.736 54 32.0588 53.8721 31.4603 53.6165C30.8776 53.3608 30.4208 52.9214 30.0901 52.2982C29.7593 51.659 29.594 50.7802 29.594 49.6616V43.3579H28.0583V41.8479L29.9011 40.6495L30.9406 37.8931H33.3739V40.6734H36.5868V43.3579H33.3739V49.6616C33.3739 50.157 33.492 50.5325 33.7283 50.7882C33.9645 51.0279 34.2795 51.1477 34.6732 51.1477Z" fill="white"/>
<path d="M26.702 49.0154C26.702 50.0221 26.4815 50.901 26.0405 51.652C25.5995 52.403 24.9301 52.9862 24.0324 53.4017C23.1504 53.8012 22.0322 54.0009 20.6777 54.0009C20.0477 54.0009 19.4649 53.961 18.9295 53.8811C18.394 53.8012 17.89 53.6893 17.4175 53.5455C16.945 53.3857 16.4725 53.194 16 52.9703V49.5907C16.8032 49.9422 17.6222 50.2698 18.457 50.5734C19.3074 50.861 20.1107 51.0048 20.8667 51.0048C21.3549 51.0048 21.7487 50.9249 22.0479 50.7651C22.3472 50.6054 22.5676 50.3896 22.7094 50.118C22.8511 49.8463 22.922 49.5348 22.922 49.1832C22.922 48.7518 22.8039 48.3843 22.5676 48.0807C22.3472 47.7771 22.0164 47.4974 21.5754 47.2418C21.1344 46.9701 20.5911 46.6985 19.9453 46.4268C19.4728 46.2191 19.0082 45.9794 18.5515 45.7078C18.0947 45.4361 17.6852 45.1086 17.323 44.7251C16.9607 44.3256 16.6694 43.8462 16.4489 43.2869C16.2441 42.7277 16.1417 42.0566 16.1417 41.2736C16.1417 40.2509 16.378 39.3801 16.8505 38.661C17.323 37.926 17.9845 37.3667 18.835 36.9832C19.6854 36.5997 20.6777 36.408 21.8117 36.408C22.7409 36.408 23.5993 36.5118 24.3867 36.7196C25.19 36.9273 25.9538 37.2229 26.6783 37.6064L25.4735 40.4347C24.7805 40.1151 24.119 39.8674 23.489 39.6917C22.8748 39.5159 22.2763 39.428 21.6935 39.428C21.2998 39.428 20.969 39.4999 20.7013 39.6437C20.4336 39.7875 20.2288 39.9873 20.0871 40.2429C19.9611 40.4986 19.8981 40.8022 19.8981 41.1537C19.8981 41.5532 20.0004 41.8968 20.2052 42.1844C20.4257 42.456 20.7643 42.7277 21.221 42.9993C21.6778 43.255 22.2605 43.5666 22.9693 43.9341C23.7568 44.3336 24.4261 44.757 24.9774 45.2044C25.5444 45.6359 25.9696 46.1552 26.2531 46.7624C26.5523 47.3696 26.702 48.1206 26.702 49.0154Z" fill="white"/>
</svg>
