<svg width="73" height="71" viewBox="0 0 73 71" fill="none" xmlns="http://www.w3.org/2000/svg">
<g filter="url(#filter0_f_810_58553)">
<path d="M36.5 22L36.0655 30.3594L34.2317 22.1662L35.2071 30.4859L32.0193 22.6607L34.3805 30.736L29.9171 23.4714L33.6061 31.1033L27.9771 24.5783L32.903 31.5789L26.247 25.9541L32.2885 32.1511L24.7693 27.5649L31.7776 32.8057L23.5804 29.3711L31.3831 33.5267L22.7097 31.3283L31.1145 34.2962L22.1785 33.3881L30.9786 35.0954L22 35.5L30.9786 35.9046L22.1785 37.6119L31.1145 36.7038L22.7097 39.6717L31.3831 37.4733L23.5804 41.6289L31.7776 38.1943L24.7693 43.4351L32.2885 38.8489L26.247 45.0459L32.903 39.4211L27.9771 46.4217L33.6061 39.8967L29.9171 47.5286L34.3805 40.264L32.0193 48.3393L35.2071 40.5141L34.2317 48.8338L36.0655 40.6406L36.5 49L36.9345 40.6406L38.7683 48.8338L37.7929 40.5141L40.9807 48.3393L38.6195 40.264L43.0829 47.5286L39.3939 39.8967L45.0229 46.4217L40.097 39.4211L46.753 45.0459L40.7115 38.8489L48.2307 43.4351L41.2224 38.1943L49.4196 41.6289L41.6169 37.4733L50.2903 39.6717L41.8855 36.7038L50.8215 37.6119L42.0214 35.9046L51 35.5L42.0214 35.0954L50.8215 33.3881L41.8855 34.2962L50.2903 31.3283L41.6169 33.5267L49.4196 29.3711L41.2224 32.8057L48.2307 27.5649L40.7115 32.1511L46.753 25.9541L40.097 31.5789L45.0229 24.5783L39.3939 31.1033L43.0829 23.4714L38.6195 30.736L40.9807 22.6607L37.7929 30.4859L38.7683 22.1662L36.9345 30.3594L36.5 22Z" fill="#EC00D5"/>
</g>
<g filter="url(#filter1_f_810_58553)">
<path d="M37 26L36.7303 31.2633L35.5921 26.1046L36.1975 31.343L34.2188 26.416L35.6845 31.5004L32.9141 26.9264L35.2038 31.7317L31.7099 27.6234L34.7674 32.0312L30.636 28.4896L34.386 32.3914L29.7188 29.5038L34.0689 32.8036L28.9809 30.6411L33.824 33.2575L28.4405 31.8734L33.6573 33.7421L28.1108 33.1703L33.5729 34.2453L28 34.5L33.5729 34.7547L28.1108 35.8297L33.6573 35.2579L28.4405 37.1266L33.824 35.7425L28.9809 38.3589L34.0689 36.1964L29.7188 39.4962L34.386 36.6086L30.636 40.5104L34.7674 36.9688L31.7099 41.3766L35.2038 37.2683L32.9141 42.0736L35.6845 37.4996L34.2188 42.584L36.1975 37.657L35.5921 42.8954L36.7303 37.7367L37 43L37.2697 37.7367L38.4079 42.8954L37.8025 37.657L39.7812 42.584L38.3155 37.4996L41.0859 42.0736L38.7962 37.2683L42.2901 41.3766L39.2326 36.9688L43.364 40.5104L39.614 36.6086L44.2812 39.4962L39.9311 36.1964L45.0191 38.3589L40.176 35.7425L45.5595 37.1266L40.3427 35.2579L45.8892 35.8297L40.4271 34.7547L46 34.5L40.4271 34.2453L45.8892 33.1703L40.3427 33.7421L45.5595 31.8734L40.176 33.2575L45.0191 30.6411L39.9311 32.8036L44.2812 29.5038L39.614 32.3914L43.364 28.4896L39.2326 32.0312L42.2901 27.6234L38.7962 31.7317L41.0859 26.9264L38.3155 31.5004L39.7812 26.416L37.8025 31.343L38.4079 26.1046L37.2697 31.2633L37 26Z" fill="#FF2CEB"/>
</g>
<path d="M36.5 27L36.445 34.1776L35.4347 27.0631L36.3359 34.1906L34.3861 27.2513L36.2295 34.2163L33.3709 27.5618L36.1272 34.2544L32.4051 27.9895L36.0309 34.3043L31.5038 28.5279L35.9419 34.3651L30.6813 29.1683L35.8618 34.4359L29.9506 29.9006L35.7917 34.5157L29.3232 30.7134L35.7328 34.603L28.809 31.5938L35.686 34.6967L28.416 32.5279L35.652 34.7951L28.1506 33.5009L35.6314 34.8967L28.0168 34.4977L35.6245 35L28.0168 35.5023L35.6314 35.1033L28.1506 36.4991L35.652 35.2049L28.416 37.4721L35.686 35.3033L28.809 38.4062L35.7328 35.397L29.3232 39.2866L35.7917 35.4843L29.9506 40.0994L35.8618 35.5641L30.6813 40.8317L35.9419 35.6349L31.5038 41.4721L36.0309 35.6957L32.4051 42.0105L36.1272 35.7456L33.3709 42.4382L36.2295 35.7837L34.3861 42.7487L36.3359 35.8094L35.4347 42.9369L36.445 35.8224L36.5 43L36.555 35.8224L37.5653 42.9369L36.6641 35.8094L38.6139 42.7487L36.7705 35.7837L39.6291 42.4382L36.8728 35.7456L40.5949 42.0105L36.9691 35.6957L41.4962 41.4721L37.0581 35.6349L42.3187 40.8317L37.1382 35.5641L43.0494 40.0994L37.2083 35.4843L43.6768 39.2866L37.2672 35.397L44.191 38.4062L37.314 35.3033L44.584 37.4721L37.348 35.2049L44.8494 36.4991L37.3686 35.1033L44.9832 35.5023L37.3755 35L44.9832 34.4977L37.3686 34.8967L44.8494 33.5009L37.348 34.7951L44.584 32.5279L37.314 34.6967L44.191 31.5938L37.2672 34.603L43.6768 30.7134L37.2083 34.5157L43.0494 29.9006L37.1382 34.4359L42.3187 29.1683L37.0581 34.3651L41.4962 28.5279L36.9691 34.3043L40.5949 27.9895L36.8728 34.2544L39.6291 27.5618L36.7705 34.2163L38.6139 27.2513L36.6641 34.1906L37.5653 27.0631L36.555 34.1776L36.5 27Z" fill="white"/>
<defs>
<filter id="filter0_f_810_58553" x="0.200001" y="0.200001" width="72.6" height="70.6" filterUnits="userSpaceOnUse" color-interpolation-filters="sRGB">
<feFlood flood-opacity="0" result="BackgroundImageFix"/>
<feBlend mode="normal" in="SourceGraphic" in2="BackgroundImageFix" result="shape"/>
<feGaussianBlur stdDeviation="10.9" result="effect1_foregroundBlur_810_58553"/>
</filter>
<filter id="filter1_f_810_58553" x="20.2" y="18.2" width="33.6" height="32.6" filterUnits="userSpaceOnUse" color-interpolation-filters="sRGB">
<feFlood flood-opacity="0" result="BackgroundImageFix"/>
<feBlend mode="normal" in="SourceGraphic" in2="BackgroundImageFix" result="shape"/>
<feGaussianBlur stdDeviation="3.9" result="effect1_foregroundBlur_810_58553"/>
</filter>
</defs>
</svg>
